# xmcd
#
# Track frame offsets:
#	150
#	25442
#	67137
#	110977
#	148780
#	185135
#	226877
#	259412
#
# Disc length: 3965 seconds
# Revision: 0
# Processed by: cddbd v1.5.2PL0 Copyright (c) Steve Scherf et al.
# Submitted via: dBpowerAMP V12.0
#
DISCID=830f7b08
DTITLE=Various Artist - The Tenth Anniversary Collection Part Two 1996-2000
DYEAR=1996
DGENRE=House
TTITLE0=Nu Colours - Desire
TTITLE1=Black Magic - Let It Go
TTITLE2=Cunnie Williams - Spirit (MAW Mix)
TTITLE3=Melanie B feat. Missy Elliot - I Want You Back (MAW Remix)
TTITLE4=Incognito - Always There (Masters at Work Remix 96)
TTITLE5=Ruffneck feat. Yavahn - Everybody Be Somebody
TTITLE6=Lood feat. Donell Rush - Shout - N - Out
TTITLE7=Nuyorican Soul - Runaway
EXTD=
EXTT0=
EXTT1=
EXTT2=
EXTT3=
EXTT4=
EXTT5=
EXTT6=
EXTT7=
PLAYORDER=
